<svg width="116" height="116" viewBox="0 0 116 116" fill="none" xmlns="http://www.w3.org/2000/svg">
<g clip-path="url(#clip0_717_176)">
<path d="M58 84.1C55.0837 84.1006 52.2742 83.0027 50.131 81.025C47.9878 79.0473 46.6681 76.3349 46.4348 73.428C38.6987 70.6897 32.1787 65.3064 28.0258 58.2283C23.8728 51.1502 22.3539 42.8326 23.7373 34.7435C25.1206 26.6545 29.3171 19.3143 35.5862 14.0185C41.8552 8.72272 49.7936 5.81195 58 5.8C66.7284 5.79873 75.1386 9.07751 81.5629 14.9862C87.9873 20.8949 91.9567 29.002 92.684 37.7C92.7083 38.0773 92.6537 38.4555 92.524 38.8106C92.3942 39.1656 92.192 39.4899 91.9301 39.7626C91.6683 40.0353 91.3526 40.2506 91.0031 40.3948C90.6536 40.5389 90.278 40.6088 89.9 40.6C89.1236 40.5792 88.3824 40.2712 87.8199 39.7355C87.2574 39.1998 86.9136 38.4745 86.855 37.7C86.3385 32.5718 84.4645 27.674 81.4261 23.5107C78.3877 19.3474 74.2947 16.0691 69.5683 14.0133C64.8419 11.9575 59.6531 11.1984 54.5359 11.8143C49.4187 12.4301 44.5581 14.3986 40.4545 17.5172C36.3509 20.6357 33.1525 24.7915 31.1887 29.5568C29.2248 34.3221 28.5665 39.5247 29.2814 44.629C29.9963 49.7333 32.0586 54.5548 35.2561 58.5972C38.4535 62.6396 42.6706 65.7569 47.473 67.628C48.3469 65.7398 49.7125 64.1214 51.4267 62.9424C53.141 61.7633 55.1408 61.0671 57.2166 60.9265C59.2925 60.7859 61.3679 61.2063 63.2254 62.1435C65.083 63.0806 66.6543 64.5002 67.7747 66.2533C68.8951 68.0065 69.5234 70.0287 69.5937 72.1081C69.664 74.1875 69.1737 76.2475 68.1743 78.0723C67.1748 79.8971 65.703 81.4195 63.9129 82.48C62.1229 83.5405 60.0806 84.1001 58 84.1ZM29.0522 69.6H29.58C31.842 71.8098 34.3534 73.7586 37.0736 75.4H29.0522C25.7984 75.4 23.2 77.9926 23.2 81.2C23.2 88.7922 26.8076 94.4472 32.9034 98.3274C39.1094 102.289 47.937 104.4 58 104.4C68.063 104.4 76.8906 102.289 83.0966 98.3274C89.1866 94.4414 92.8 88.798 92.8 81.2C92.8 79.6617 92.189 78.1865 91.1012 77.0988C90.0135 76.0111 88.5383 75.4 87 75.4H75.1622C75.4848 73.4801 75.4848 71.5199 75.1622 69.6H87C90.0765 69.6 93.027 70.8221 95.2025 72.9976C97.3779 75.173 98.6 78.1235 98.6 81.2C98.6 91.0078 93.7686 98.4028 86.217 103.223C78.7814 107.961 68.759 110.2 58 110.2C47.241 110.2 37.2186 107.961 29.783 103.223C22.2314 98.4086 17.4 91.002 17.4 81.2C17.4 74.7446 22.6374 69.6 29.0522 69.6ZM81.2 40.6C81.2029 44.5248 80.2093 48.3861 78.3123 51.822C76.4153 55.258 73.677 58.156 70.354 60.2446C68.805 58.6841 66.9748 57.4305 64.96 56.55C68.6238 54.951 71.6252 52.1393 73.4597 48.5876C75.2941 45.0359 75.8497 40.9608 75.033 37.0476C74.2163 33.1345 72.0771 29.6219 68.9751 27.1005C65.8731 24.5791 61.9975 23.2026 58 23.2026C54.0025 23.2026 50.127 24.5791 47.025 27.1005C43.923 29.6219 41.7838 33.1345 40.9671 37.0476C40.1503 40.9608 40.7059 45.0359 42.5404 48.5876C44.3748 52.1393 47.3763 54.951 51.04 56.55C49.01 57.4374 47.183 58.696 45.646 60.2446C41.2441 57.47 37.8992 53.3 36.1456 48.401C35.2516 45.8975 34.7964 43.2584 34.8 40.6C34.8 34.447 37.2443 28.546 41.5951 24.1951C45.946 19.8443 51.847 17.4 58 17.4C64.153 17.4 70.0541 19.8443 74.4049 24.1951C78.7557 28.546 81.2 34.447 81.2 40.6Z" fill="black"/>
</g>
<defs>
<clipPath id="clip0_717_176">
<rect width="116" height="116" fill="white"/>
</clipPath>
</defs>
</svg>
